<svg width="1024" height="500" viewBox="0 0 1024 500" fill="none" xmlns="http://www.w3.org/2000/svg">
  <defs>
    <linearGradient id="bg" x1="0" y1="0" x2="1024" y2="500" gradientUnits="userSpaceOnUse">
      <stop stop-color="#F8F5EF"/>
      <stop offset="0.55" stop-color="#EEF5EC"/>
      <stop offset="1" stop-color="#E7F0F8"/>
    </linearGradient>
    <linearGradient id="photo" x1="620" y1="88" x2="934" y2="406" gradientUnits="userSpaceOnUse">
      <stop stop-color="#79B897"/>
      <stop offset="0.42" stop-color="#2C7E62"/>
      <stop offset="0.43" stop-color="#BD6B58"/>
      <stop offset="1" stop-color="#D8B38F"/>
    </linearGradient>
    <clipPath id="phoneScreen">
      <rect x="626" y="86" width="274" height="290" rx="34"/>
    </clipPath>
    <filter id="shadow" x="-20%" y="-20%" width="140%" height="140%" color-interpolation-filters="sRGB">
      <feDropShadow dx="0" dy="16" stdDeviation="20" flood-color="#1C1A17" flood-opacity="0.18"/>
    </filter>
  </defs>

  <rect width="1024" height="500" fill="url(#bg)"/>
  <circle cx="856" cy="66" r="122" fill="#D7E9DE" opacity="0.7"/>
  <circle cx="110" cy="420" r="142" fill="#EFE4D4" opacity="0.8"/>

  <g transform="translate(70 94)">
    <rect width="132" height="132" rx="34" fill="#1F7A5C"/>
    <rect x="24" y="36" width="84" height="56" rx="16" fill="#FDFBF7"/>
    <rect x="38" y="25" width="34" height="22" rx="10" fill="#FDFBF7"/>
    <circle cx="66" cy="64" r="20" fill="#1F7A5C"/>
    <circle cx="66" cy="64" r="11" fill="#FDFBF7"/>
    <path d="M42 98L56 112L94 88" stroke="#FDFBF7" stroke-width="12" stroke-linecap="round" stroke-linejoin="round"/>
    <path d="M104 20C119 20 132 32 132 48C132 72 104 96 104 96C104 96 76 72 76 48C76 32 89 20 104 20Z" fill="#FF6B5F"/>
    <circle cx="104" cy="48" r="10" fill="#FDFBF7"/>
  </g>

  <text x="70" y="272" fill="#30323A" font-family="Arial, Helvetica, sans-serif" font-size="56" font-weight="900">인증샷 카메라</text>
  <text x="72" y="326" fill="#1F7A5C" font-family="Arial, Helvetica, sans-serif" font-size="32" font-weight="800">시간 · 장소 · 메모 스탬프</text>
  <text x="72" y="378" fill="#746D64" font-family="Arial, Helvetica, sans-serif" font-size="24" font-weight="700">운동, 식단, 공부 기록을 한 장에 깔끔하게</text>

  <g filter="url(#shadow)">
    <rect x="598" y="58" width="330" height="384" rx="48" fill="#30323A"/>
    <g clip-path="url(#phoneScreen)">
      <image href="../../assets/onboarding/onboarding_court.jpg" x="602" y="86" width="430" height="290" preserveAspectRatio="xMidYMid slice"/>
      <rect x="626" y="86" width="274" height="290" fill="#10231D" opacity="0.18"/>
      <rect x="626" y="236" width="274" height="140" fill="url(#photo)" opacity="0.16"/>
    </g>
    <rect x="646" y="108" width="234" height="246" rx="4" stroke="#FDFBF7" stroke-width="5" opacity="0.86"/>
    <rect x="682" y="172" width="162" height="106" rx="22" fill="#30323A" opacity="0.64"/>
    <text x="763" y="211" text-anchor="middle" fill="#FDFBF7" font-family="Arial, Helvetica, sans-serif" font-size="25" font-weight="900">현재 코트 상태</text>
    <text x="763" y="254" text-anchor="middle" fill="#FDFBF7" font-family="Arial, Helvetica, sans-serif" font-size="48" font-weight="900">14:30</text>
    <text x="763" y="306" text-anchor="middle" fill="#FDFBF7" font-family="Arial, Helvetica, sans-serif" font-size="19" font-weight="800">강남순환로 111</text>
    <circle cx="763" cy="410" r="26" fill="#FDFBF7"/>
  </g>

  <rect x="520" y="386" width="220" height="58" rx="29" fill="#FDFBF7" stroke="#E6DED3" stroke-width="2"/>
  <circle cx="560" cy="415" r="13" fill="#1F7A5C"/>
  <circle cx="604" cy="415" r="13" fill="#30323A"/>
  <circle cx="648" cy="415" r="13" fill="#FF6B5F"/>
  <circle cx="692" cy="415" r="13" fill="#FFD166"/>
</svg>
